<?xml version="1.0" encoding="UTF-8" standalone="no"?>
<!DOCTYPE svg PUBLIC "-//W3C//DTD SVG 1.1//EN" "http://www.w3.org/Graphics/SVG/1.1/DTD/svg11.dtd">
<svg width="100%" height="100%" viewBox="0 0 601 603" version="1.1" xmlns="http://www.w3.org/2000/svg" xmlns:xlink="http://www.w3.org/1999/xlink" xml:space="preserve" xmlns:serif="http://www.serif.com/" style="fill-rule:evenodd;clip-rule:evenodd;stroke-linejoin:round;stroke-miterlimit:2;">
    <g transform="matrix(1,0,0,1,-927,-328)">
        <g transform="matrix(1.018644,0,0,1.022034,-530.679661,-626.579661)">
            <path d="M2021,1027.243L2021,1430.757C2021,1482.219 1979.219,1524 1927.757,1524L1524.243,1524C1472.781,1524 1431,1482.219 1431,1430.757L1431,1027.243C1431,975.781 1472.781,934 1524.243,934L1927.757,934C1979.219,934 2021,975.781 2021,1027.243ZM1865,1188C1799.874,1188 1747,1241.098 1747,1306.5C1747,1371.902 1799.874,1425 1865,1425C1930.126,1425 1983,1371.902 1983,1306.5C1983,1241.098 1930.126,1188 1865,1188ZM1527.715,1128C1553.566,1129.671 1566.952,1141.873 1569.34,1163.366L1569.34,1444.864C1569.34,1463.905 1584.799,1479.364 1603.84,1479.364L1672.84,1479.364C1691.881,1479.364 1707.34,1463.905 1707.34,1444.864L1707.34,1161.717C1710.274,1141.249 1723.866,1129.628 1749.498,1128L1934.5,1128C1953.541,1128 1969,1112.541 1969,1093.5L1969,1024.5C1969,1005.459 1953.541,990 1934.5,990L1514.5,990C1495.459,990 1480,1005.459 1480,1024.5L1480,1093.5C1480,1112.541 1495.459,1128 1514.5,1128L1527.715,1128Z" style="fill:rgb(22,68,61);"/>
        </g>
    </g>
</svg>
